<?xml version="1.0" encoding="utf-8"?>
<!-- Generator: Adobe Illustrator 11.0, SVG Export Plug-In  -->
<!DOCTYPE svg PUBLIC "-//W3C//DTD SVG 1.0//EN"    "http://www.w3.org/TR/2001/REC-SVG-20010904/DTD/svg10.dtd" [
	<!ENTITY ns_flows "http://ns.adobe.com/Flows/1.0/">
	<!ENTITY ns_svg "http://www.w3.org/2000/svg">
	<!ENTITY ns_xlink "http://www.w3.org/1999/xlink">
]>
<svg  xmlns="&ns_svg;" xmlns:xlink="&ns_xlink;" xmlns:a="http://ns.adobe.com/AdobeSVGViewerExtensions/3.0/"
	 width="16" height="16" viewBox="-1.2793 -1.39844 48 48" xml:space="preserve">
	<defs>
	</defs>
	<g>
		<linearGradient id="XMLID_1_" gradientUnits="userSpaceOnUse" x1="14.13818" y1="4.6709" x2="25.26008" y2="45.45124">
			<stop  offset="0" style="stop-color:#FFFFFF"/>
			<stop  offset="0.34329" style="stop-color:#FBFCFE"/>
			<stop  offset="0.6717" style="stop-color:#F0F4F9"/>
			<stop  offset="0.99378" style="stop-color:#DCE7F2"/>
			<stop  offset="1" style="stop-color:#DCE7F2"/>
			<a:midPointStop  offset="0" style="stop-color:#FFFFFF"/>
			<a:midPointStop  offset="0.71593" style="stop-color:#FFFFFF"/>
			<a:midPointStop  offset="1" style="stop-color:#DCE7F2"/>
		</linearGradient>
		<polygon fill="url(#XMLID_1_)" stroke="#565248" stroke-linecap="round" stroke-linejoin="round" points="38.38086,36.03711 
			9.14355,46.60156 0.5,10.73584 29.43164,0.5 "/>
		<linearGradient id="XMLID_2_" gradientUnits="userSpaceOnUse" x1="15.99365" y1="9.46191" x2="23.49201" y2="40.20512">
			<stop  offset="0" style="stop-color:#7590AE"/>
			<stop  offset="0.12889" style="stop-color:#7C97B4"/>
			<stop  offset="0.66829" style="stop-color:#94AFCA"/>
			<stop  offset="1" style="stop-color:#9DB8D2"/>
			<a:midPointStop  offset="0" style="stop-color:#7590AE"/>
			<a:midPointStop  offset="0.4" style="stop-color:#7590AE"/>
			<a:midPointStop  offset="1" style="stop-color:#9DB8D2"/>
		</linearGradient>
		<polygon fill="url(#XMLID_2_)" points="35.31152,34.01563 10.81104,42.86719 3.56836,12.81201 27.81348,4.23389 "/>
		<linearGradient id="XMLID_3_" gradientUnits="userSpaceOnUse" x1="18.83545" y1="22.09229" x2="23.23685" y2="39.09766">
			<stop  offset="0" style="stop-color:#46A046"/>
			<stop  offset="1" style="stop-color:#445632"/>
			<a:midPointStop  offset="0" style="stop-color:#46A046"/>
			<a:midPointStop  offset="0.5" style="stop-color:#46A046"/>
			<a:midPointStop  offset="1" style="stop-color:#445632"/>
		</linearGradient>
		<path fill="url(#XMLID_3_)" d="M8.8457,33.97656c0,0-0.625-0.75,1-4.5s1.5-7.125,8-3.875c5.03125,2.51563,6.375-1.75,8.5-1.75
			s6.875,2.5,6.875,2.5l2.125,7.75l-24.53467,8.76563L8.8457,33.97656z"/>
		
			<linearGradient id="XMLID_4_" gradientUnits="userSpaceOnUse" x1="10.06982" y1="16.15479" x2="11.49811" y2="22.01076" gradientTransform="matrix(0.9382 -0.3462 0.3462 0.9382 -4.58871 4.82303)">
			<stop  offset="0" style="stop-color:#FFFFFF"/>
			<stop  offset="0.19798" style="stop-color:#E6EDF3"/>
			<stop  offset="0.54889" style="stop-color:#BED0E1"/>
			<stop  offset="0.82852" style="stop-color:#A6BED6"/>
			<stop  offset="1" style="stop-color:#9DB8D2"/>
			<a:midPointStop  offset="0" style="stop-color:#FFFFFF"/>
			<a:midPointStop  offset="0.4" style="stop-color:#FFFFFF"/>
			<a:midPointStop  offset="1" style="stop-color:#9DB8D2"/>
		</linearGradient>
		<path fill="url(#XMLID_4_)" d="M14.23291,16.44531c-0.1499,0.05518-0.29004,0.12158-0.4248,0.19287
			c-0.50146-0.96045-1.64307-1.42822-2.68701-1.04297c-0.77783,0.28662-1.28467,0.97119-1.39746,1.7373
			c-0.39795-0.03174-0.81738,0.0127-1.23145,0.16504c-1.32764,0.48975-2.06494,1.80615-1.64697,2.93896
			c0.41846,1.13379,1.83398,1.65527,3.16113,1.16553c0.27295-0.10059,0.51221-0.24268,0.73096-0.40381
			c0.35059,0.76465,1.22998,1.146,2.03223,0.8501c0.79639-0.29395,1.21631-1.14453,0.99805-1.94824
			c0.52832,0.12158,1.14795,0.09033,1.76367-0.13672c1.32764-0.48975,2.11328-1.67432,1.75488-2.646
			S15.56055,15.95557,14.23291,16.44531z"/>
		
			<linearGradient id="XMLID_5_" gradientUnits="userSpaceOnUse" x1="22.30908" y1="15.24561" x2="23.50701" y2="20.1571" gradientTransform="matrix(0.9928 -0.1198 0.1198 0.9928 -1.65063 2.60231)">
			<stop  offset="0" style="stop-color:#FFFFFF"/>
			<stop  offset="0.19798" style="stop-color:#E6EDF3"/>
			<stop  offset="0.54889" style="stop-color:#BED0E1"/>
			<stop  offset="0.82852" style="stop-color:#A6BED6"/>
			<stop  offset="1" style="stop-color:#9DB8D2"/>
			<a:midPointStop  offset="0" style="stop-color:#FFFFFF"/>
			<a:midPointStop  offset="0.4" style="stop-color:#FFFFFF"/>
			<a:midPointStop  offset="1" style="stop-color:#9DB8D2"/>
		</linearGradient>
		<path fill="url(#XMLID_5_)" d="M25.35059,14.19824c-0.41504,0.05029-0.78418,0.21729-1.09375,0.45459
			c-0.36621-0.15576-0.77539-0.229-1.20166-0.17773c-1.07813,0.13037-1.88916,0.96436-2.01758,1.96924
			c-0.18848-0.0293-0.38135-0.04297-0.58008-0.01904c-1.16553,0.14063-1.99609,1.19873-1.85547,2.36426
			s1.19922,1.99561,2.36426,1.85547c0.65283-0.0791,1.19189-0.45068,1.52295-0.96289
			c0.22217,0.2124,0.52295,0.33838,0.85205,0.29834c0.58252-0.07031,0.99756-0.59912,0.92822-1.18213
			c-0.00293-0.01611-0.0127-0.0293-0.01563-0.0459c0.16699-0.07275,0.32227-0.16113,0.46484-0.26807
			c0.35742,0.15723,0.75586,0.23145,1.1709,0.18164c1.2334-0.14893,2.11328-1.26953,1.96484-2.50342
			C27.70508,14.92871,26.58398,14.04932,25.35059,14.19824z"/>
	</g>
</svg>
