<?xml version="1.0" encoding="utf-8"?>
<!-- Generator: Adobe Illustrator 11.0, SVG Export Plug-In  -->
<!DOCTYPE svg PUBLIC "-//W3C//DTD SVG 1.0//EN"    "http://www.w3.org/TR/2001/REC-SVG-20010904/DTD/svg10.dtd" [
	<!ENTITY ns_flows "http://ns.adobe.com/Flows/1.0/">
	<!ENTITY ns_svg "http://www.w3.org/2000/svg">
	<!ENTITY ns_xlink "http://www.w3.org/1999/xlink">
]>
<svg  xmlns="&ns_svg;" xmlns:xlink="&ns_xlink;" xmlns:a="http://ns.adobe.com/AdobeSVGViewerExtensions/3.0/"
	 width="48" height="48" viewBox="-3.32666 -3.5 48 48" xml:space="preserve">
	<defs>
	</defs>
	<g>
		<path d="M0,3.77832l0.3125,37.71582l1.04639-0.10156l-0.00879-0.8877l2.53369-0.25195l0.00684,0.88672l21.30615-2.10938
			l-0.0127-0.8877l2.53711-0.24609l0.00684,0.88184l0.89551-0.08789L28.30908,0.98096L0,3.77832z M24.73877,2.18359l2.53613-0.24756
			l0.0127,2.12939l-2.52734,0.25146L24.73877,2.18359z M24.78467,8.05078l2.53613-0.25391l0.0166,2.13525l-2.53125,0.24951
			L24.78467,8.05078z M0.90283,4.54053l2.53223-0.25098l0.0166,2.13525L0.91992,6.67578L0.90283,4.54053z M0.95166,10.40771
			l2.53125-0.25293l0.01855,2.13379l-2.53467,0.25L0.95166,10.40771z M1.0166,18.40771l-0.02148-2.13525l2.53418-0.25098
			l0.02002,2.13184L1.0166,18.40771z M3.84619,35.84863L1.31396,36.0957l-0.02002-2.13477l2.53613-0.25293L3.84619,35.84863z
			 M3.79785,29.97852l-2.53271,0.25195l-0.01709-2.13574l2.5293-0.24902L3.79785,29.97852z M3.74854,24.11328l-2.53467,0.25195
			l-0.0166-2.13672l2.53564-0.24902L3.74854,24.11328z M24.854,16.04785l-0.01465-2.13232l2.52734-0.25195l0.02148,2.13135
			L24.854,16.04785z M27.68311,33.48828l-2.5293,0.25098l-0.02051-2.13379l2.53418-0.25586L27.68311,33.48828z M27.63232,27.62207
			l-2.5293,0.24902l-0.01563-2.13281l2.53027-0.25293L27.63232,27.62207z M27.58545,21.75293l-2.53418,0.24902l-0.01563-2.12988
			l2.5332-0.24951L27.58545,21.75293z"/>
		<linearGradient id="XMLID_1_" gradientUnits="userSpaceOnUse" x1="13.43311" y1="1.64209" x2="14.5581" y2="43.01709">
			<stop  offset="0" style="stop-color:#EED680"/>
			<stop  offset="1" style="stop-color:#990000"/>
			<a:midPointStop  offset="0" style="stop-color:#EED680"/>
			<a:midPointStop  offset="0.5" style="stop-color:#EED680"/>
			<a:midPointStop  offset="1" style="stop-color:#990000"/>
		</linearGradient>
		<path fill="url(#XMLID_1_)" d="M22.68896,25.87695c0.01953,1.75977-0.93945,3.28613-2.13184,3.40625L7.53271,30.56836
			c-1.1958,0.12109-2.17627-1.21289-2.19141-2.97266L5.25342,16.90771c-0.0127-1.7627,0.94141-3.2876,2.13574-3.40332
			l13.02539-1.29004c1.19531-0.11475,2.1709,1.21729,2.18359,2.97998L22.68896,25.87695z"/>
		<linearGradient id="XMLID_2_" gradientUnits="userSpaceOnUse" x1="13.23682" y1="1.64746" x2="14.36182" y2="43.02246">
			<stop  offset="0" style="stop-color:#EED680"/>
			<stop  offset="1" style="stop-color:#990000"/>
			<a:midPointStop  offset="0" style="stop-color:#EED680"/>
			<a:midPointStop  offset="0.5" style="stop-color:#EED680"/>
			<a:midPointStop  offset="1" style="stop-color:#990000"/>
		</linearGradient>
		<path fill="url(#XMLID_2_)" d="M22.9292,39.22266l-0.02441-2.7832c-0.01074-1.75977-0.99023-3.09766-2.18848-2.97461
			L7.69336,34.75195c-1.19385,0.11621-2.15234,1.64453-2.13379,3.40234l0.02295,2.78711L22.9292,39.22266z"/>
		<linearGradient id="XMLID_3_" gradientUnits="userSpaceOnUse" x1="14.14111" y1="1.62305" x2="15.26611" y2="42.99805">
			<stop  offset="0" style="stop-color:#EED680"/>
			<stop  offset="1" style="stop-color:#990000"/>
			<a:midPointStop  offset="0" style="stop-color:#EED680"/>
			<a:midPointStop  offset="0.5" style="stop-color:#EED680"/>
			<a:midPointStop  offset="1" style="stop-color:#990000"/>
		</linearGradient>
		<path fill="url(#XMLID_3_)" d="M5.52051,3.19629L5.5542,7.0083c0.01465,1.76221,0.99268,3.09229,2.1875,2.97412l13.02539-1.28906
			c1.19238-0.11816,2.14746-1.63916,2.13672-3.3999l-0.0332-3.81299L5.52051,3.19629z"/>
		<g>
			<g>
				<path fill="none" stroke="#565248" d="M25.40771,20.94922c-3.2373,0-5.85938,2.56836-5.85938,5.7373
					s2.62207,5.7373,5.85938,5.7373c3.23633,0,5.86035-2.56836,5.86035-5.7373S28.64404,20.94922,25.40771,20.94922z
					 M25.52393,30.82715c-2.27051,0-4.11328-1.80176-4.11328-4.02637c0-2.22363,1.84277-4.02832,4.11328-4.02832
					c2.27246,0,4.11328,1.80469,4.11328,4.02832C29.63721,29.02539,27.79639,30.82715,25.52393,30.82715z"/>
			</g>
		</g>
		<linearGradient id="XMLID_4_" gradientUnits="userSpaceOnUse" x1="30.1626" y1="13.82031" x2="20.60731" y2="40.57458">
			<stop  offset="0" style="stop-color:#C5D2C8"/>
			<stop  offset="0.16292" style="stop-color:#B9B5AB"/>
			<stop  offset="0.53933" style="stop-color:#807D74"/>
			<stop  offset="0.66341" style="stop-color:#817F77"/>
			<stop  offset="0.75348" style="stop-color:#848580"/>
			<stop  offset="0.83282" style="stop-color:#898F90"/>
			<stop  offset="0.90592" style="stop-color:#909DA6"/>
			<stop  offset="0.97418" style="stop-color:#99B0C3"/>
			<stop  offset="1" style="stop-color:#9DB8D0"/>
			<a:midPointStop  offset="0" style="stop-color:#C5D2C8"/>
			<a:midPointStop  offset="0.5" style="stop-color:#C5D2C8"/>
			<a:midPointStop  offset="0.16292" style="stop-color:#B9B5AB"/>
			<a:midPointStop  offset="0.5" style="stop-color:#B9B5AB"/>
			<a:midPointStop  offset="0.53933" style="stop-color:#807D74"/>
			<a:midPointStop  offset="0.76829" style="stop-color:#807D74"/>
			<a:midPointStop  offset="1" style="stop-color:#9DB8D0"/>
		</linearGradient>
		<path fill="url(#XMLID_4_)" d="M25.48877,13.03516c-7.76318,0-14.05518,6.21143-14.05518,13.87402
			c0,7.66309,6.29199,13.875,14.05518,13.875c7.76172,0,14.05469-6.21191,14.05469-13.875
			C39.54346,19.24658,33.25049,13.03516,25.48877,13.03516z M25.48877,31.87891c-2.78027,0-5.03516-2.22461-5.03516-4.96973
			c0-2.74414,2.25488-4.96973,5.03516-4.96973c2.7793,0,5.03418,2.22559,5.03418,4.96973
			C30.52295,29.6543,28.26807,31.87891,25.48877,31.87891z"/>
		<path fill="none" stroke="#565248" d="M25.48877,13.03516c-7.76318,0-14.05518,6.21143-14.05518,13.87402
			c0,7.66309,6.29199,13.875,14.05518,13.875c7.76172,0,14.05469-6.21191,14.05469-13.875
			C39.54346,19.24658,33.25049,13.03516,25.48877,13.03516z M25.48877,31.87891c-2.78027,0-5.03516-2.22461-5.03516-4.96973
			c0-2.74414,2.25488-4.96973,5.03516-4.96973c2.7793,0,5.03418,2.22559,5.03418,4.96973
			C30.52295,29.6543,28.26807,31.87891,25.48877,31.87891z"/>
		<g opacity="0.56">
			<g>
				<path fill="#FFFFFF" d="M12.17139,23.08105l8.21582,2.75586c0.16797-0.6416,0.44727-1.23633,0.82031-1.7627l-7.15137-5.09229
					L12.17139,23.08105z M11.92529,29.3916l0.08203,0.90137l8.59473-1.0332c-0.07813-0.19531-0.14355-0.39648-0.2002-0.60156
					L11.92529,29.3916z M30.96826,26.02441c0.08691,0.38477,0.13574,0.78418,0.13574,1.19434
					c0,0.11621-0.00977,0.23047-0.01758,0.34473l8.13184,0.18945v-2.62402L30.96826,26.02441z M30.64307,29.40918l8.16602,0.96582
					l0.24512-1.72168l-8.05566-0.37305C30.92139,28.67383,30.80029,29.05078,30.64307,29.40918z"/>
			</g>
		</g>
		<g>
			<g>
				
					<linearGradient id="XMLID_5_" gradientUnits="userSpaceOnUse" x1="30.07373" y1="21.89551" x2="25.26646" y2="35.90989" gradientTransform="matrix(1 0 0 1 -2.25 -2.25)">
					<stop  offset="0" style="stop-color:#928F90"/>
					<stop  offset="1" style="stop-color:#EBE8E4"/>
					<a:midPointStop  offset="0" style="stop-color:#928F90"/>
					<a:midPointStop  offset="0.5" style="stop-color:#928F90"/>
					<a:midPointStop  offset="1" style="stop-color:#EBE8E4"/>
				</linearGradient>
				<path fill="url(#XMLID_5_)" d="M25.40771,20.53906c-3.41699,0-6.1875,2.75293-6.1875,6.14746
					c0,3.39551,2.77051,6.14746,6.1875,6.14746c3.41797,0,6.18848-2.75195,6.18848-6.14746
					C31.59619,23.29199,28.82568,20.53906,25.40771,20.53906z M25.53174,31.12305c-2.39941,0-4.34473-1.93066-4.34473-4.31445
					c0-2.38281,1.94531-4.31543,4.34473-4.31543c2.39844,0,4.34277,1.93262,4.34277,4.31543
					C29.87451,29.19238,27.93018,31.12305,25.53174,31.12305z"/>
			</g>
		</g>
		<path fill="none" stroke="#FFFFFF" stroke-width="4" d="M37.41553,26.07031c0,0,2.34863-1.19629,0.4873-2.12793
			c-1.86035-0.92969-3.16895,1.91504-1.19531,3.0127c3.10059,1.72852,5.09473-1.50586,3.7207-3.76563
			c-1.37305-2.25928-7.13379-12.49561-7.66504-13.95752c-0.53223-1.4624-1.41797-4.34229-0.79785-6.60254
			c0.63086-2.29541,3.10254,2.26025,2.79199,4.47559c-0.3291,2.3418-2.75293,4.75684-3.19141,8.50781
			c-0.39746,3.41211,1.15234,6.38037,4.34277,5.71582c3.19043-0.66504,4.15625-2.16797,4.47656-4.20947
			c0.35352-2.25977-1.80859-4.6582-3.89941-2.83594c-3.10352,2.70264,0.17676,5.53906,1.01758,4.03223
			c0.84277-1.50635,0.70996-2.43701,0.04492-2.08252"/>
		<path fill="none" stroke="#663822" d="M37.41553,26.07031c0,0,2.34863-1.19629,0.4873-2.12793
			c-1.86035-0.92969-3.16895,1.91504-1.19531,3.0127c3.10059,1.72852,5.09473-1.50586,3.7207-3.76563
			c-1.37305-2.25928-7.13379-12.49561-7.66504-13.95752c-0.53223-1.4624-1.41797-4.34229-0.79785-6.60254
			c0.63086-2.29541,3.10254,2.26025,2.79199,4.47559c-0.3291,2.3418-2.75293,4.75684-3.19141,8.50781
			c-0.39746,3.41211,1.15234,6.38037,4.34277,5.71582c3.19043-0.66504,4.15625-2.16797,4.47656-4.20947
			c0.35352-2.25977-1.80859-4.6582-3.89941-2.83594c-3.10352,2.70264,0.17676,5.53906,1.01758,4.03223
			c0.84277-1.50635,0.70996-2.43701,0.04492-2.08252"/>
	</g>
</svg>
