<?xml version="1.0" encoding="utf-8"?>
<!-- Generator: Adobe Illustrator 11.0, SVG Export Plug-In  -->
<!DOCTYPE svg PUBLIC "-//W3C//DTD SVG 1.0//EN"    "http://www.w3.org/TR/2001/REC-SVG-20010904/DTD/svg10.dtd" [
	<!ENTITY ns_flows "http://ns.adobe.com/Flows/1.0/">
	<!ENTITY ns_svg "http://www.w3.org/2000/svg">
	<!ENTITY ns_xlink "http://www.w3.org/1999/xlink">
]>
<svg  xmlns="&ns_svg;" xmlns:xlink="&ns_xlink;" xmlns:a="http://ns.adobe.com/AdobeSVGViewerExtensions/3.0/"
	 width="48" height="48" viewBox="-2.74561 -1.58301 48 48" xml:space="preserve">
	<defs>
	</defs>
	<g>
		
			<radialGradient id="XMLID_1_" cx="26.36377" cy="10.12744" r="39.14573" fx="26.36377" fy="10.12744" gradientTransform="matrix(0.9831 0 0 1.001 1.61633 0.45705)" gradientUnits="userSpaceOnUse">
			<stop  offset="0.00562" style="stop-color:#FFFFFF"/>
			<stop  offset="0.02201" style="stop-color:#F8FAFC"/>
			<stop  offset="0.13109" style="stop-color:#D1DEEA"/>
			<stop  offset="0.23113" style="stop-color:#B4C9DD"/>
			<stop  offset="0.31803" style="stop-color:#A3BCD5"/>
			<stop  offset="0.38202" style="stop-color:#9DB8D2"/>
			<stop  offset="0.49275" style="stop-color:#9AB5CF"/>
			<stop  offset="0.56755" style="stop-color:#91ADC7"/>
			<stop  offset="0.63173" style="stop-color:#829EB9"/>
			<stop  offset="0.68994" style="stop-color:#6D89A4"/>
			<stop  offset="0.74356" style="stop-color:#516E8A"/>
			<stop  offset="0.79214" style="stop-color:#314E6C"/>
			<a:midPointStop  offset="0.00562" style="stop-color:#FFFFFF"/>
			<a:midPointStop  offset="0.35821" style="stop-color:#FFFFFF"/>
			<a:midPointStop  offset="0.38202" style="stop-color:#9DB8D2"/>
			<a:midPointStop  offset="0.78082" style="stop-color:#9DB8D2"/>
			<a:midPointStop  offset="0.79214" style="stop-color:#314E6C"/>
		</radialGradient>
		<circle fill="url(#XMLID_1_)" stroke="#565248" cx="22.1272" cy="22.521" r="21.6272"/> 
		<path fill="none" stroke="#FFFFFF" stroke-width="0.25" d="M0.64551,27.02246c0,0,22.1001-10.05176,42.61377,0.09863"/>
		<path fill="none" stroke="#FFFFFF" stroke-width="0.25" d="M0.24854,21.40527c0,0,20.31592-10.15186,43.50586,0"/>
		<path fill="none" stroke="#FFFFFF" stroke-width="0.25" d="M1.33887,15.49121c0,0,20.31592-8.27881,41.42432,0.29639"/>
		<path fill="none" stroke="#FFFFFF" stroke-width="0.25" d="M40.18701,10.16943c0,0-16.25293-6.40625-35.77588-0.39404"/>
		<path fill="none" stroke="#FFFFFF" stroke-width="0.25" d="M35.43018,5.14258c0,0-18.23486-4.04004-26.95605,0.29639"/>
		<path fill="none" stroke="#FFFFFF" stroke-width="0.25" d="M3.02393,32.83789c0,0,16.35156-9.46143,38.45117,0.09766"/>
		<path fill="none" stroke="#FFFFFF" stroke-width="0.25" d="M38.00537,37.37207c0,0-14.86426-7.39258-31.71143,0.09766"/>
		<path fill="none" stroke="#FFFFFF" stroke-width="0.25" d="M10.85303,41.21484c0,0,5.25146-5.61719,22.49512-0.39453"/>
		<path fill="none" stroke="#FFFFFF" stroke-width="0.25" d="M27.69971,43.08691c0,0-6.44092-1.96973-11.69385,0.09961"/>
		<line fill="none" stroke="#FFFFFF" stroke-width="0.25" x1="22.24951" y1="0.80615" x2="22.24951" y2="44.17188"/>
		<path fill="none" stroke="#FFFFFF" stroke-width="0.25" d="M24.72705,1.10254c0,0,7.53027,10.84131-0.09863,42.6748"/>
		<path fill="none" stroke="#FFFFFF" stroke-width="0.25" d="M25.12354,43.87695c0,0,16.94629-27.59668,2.37793-42.47949"/>
		<path fill="none" stroke="#FFFFFF" stroke-width="0.25" d="M31.16943,2.87598c0,0,18.72949,17.34619-5.45215,41.00098"/>
		<path fill="none" stroke="#FFFFFF" stroke-width="0.25" d="M27.00635,43.97559c0,0,24.67773-16.65723,9.71191-37.74951"/>
		<path fill="none" stroke="#FFFFFF" stroke-width="0.25" d="M19.33691,1.20068c0,0-7.53174,10.84082,0.09912,42.67627"/>
		<path fill="none" stroke="#FFFFFF" stroke-width="0.25" d="M18.94043,43.97559c0,0-16.94678-27.59717-2.37891-42.47949"/>
		<path fill="none" stroke="#FFFFFF" stroke-width="0.25" d="M12.89502,2.97412c0,0-18.73047,17.34668,5.45068,41.00146"/>
		<path fill="none" stroke="#FFFFFF" stroke-width="0.25" d="M17.05713,44.07422c0,0-24.67627-16.65723-9.71191-37.74854"/>
		<path fill="#445632" d="M8.06885,17.36963h1.32324c0,0,0.47754,0.88135,0.68896,0.94482
			c0.21094,0.06299,0.84717,0.69385,0.84717,0.69385s0.95313,0.25195,1.05859,0.69287
			c0.10596,0.44043,0.10596,0.88135,0.37012,1.19824c0.26465,0.31396,0.31787,0.56641,0.47705,0.62939
			c0.15869,0.0625,0.68799-0.19043,0.68799-0.19043l0.05322,1.70215c0,0,0.26465,1.38623-0.31787,1.26025
			c-0.58252-0.125-1.58838-0.94531-1.85303-1.32275c-0.26514-0.37939-0.79395-1.00928-1.05908-1.89063
			c-0.26416-0.88232-0.37012-1.38623-0.84717-1.63916c-0.47607-0.25049-1.16455-0.94385-1.32324-1.25928
			S8.06885,17.36963,8.06885,17.36963z"/>
		<path fill="#445632" d="M13.46875,25.05762c0,0,0.42383-0.63086,0.74072-0.63086c0.31885,0,0.90088,0.18848,0.90088,0.18848
			v0.31641l1.16455-0.19043l0.05371-0.37695l1.90576,0.18848l-0.05322,0.56836l0.74121,0.06348c0,0,0.05322,0.43945-0.15869,0.43945
			s-2.70068,0.0625-2.70068,0.0625l-2.06396-0.125l-0.53027-0.37695"/>
		<polygon fill="#445632" points="19.55859,25.05762 19.29346,25.81348 20.14014,25.81348 20.93457,25.12109 "/>
		<polygon fill="#445632" points="21.0415,26.06348 21.51709,25.87598 22.04639,26.12695 21.83545,26.56934 "/>
		<polyline fill="#445632" points="21.94043,24.99414 22.52197,24.74121 22.73389,25.12109 23.31592,24.93164 23.47705,25.62402 
			21.83545,25.37207 21.78076,24.99414 "/>
		<polygon fill="#445632" points="25.5415,24.67773 24.4292,25.37207 23.89893,26.25488 23.47705,27.3252 24.48193,26.75684 
			25.32861,25.68652 26.01709,25.18457 "/>
		<polygon fill="#445632" points="21.94043,21.02344 22.04639,23.1665 21.30518,23.22998 21.30518,21.65479 21.09326,21.65479 
			21.25195,20.01611 21.46387,19.82666 21.46387,18.88135 22.04639,18.31445 24.00537,18.31445 24.64111,17.18018 
			25.16943,17.55859 24.58838,18.75586 22.41748,18.81787 21.94043,19.70117 21.99365,20.26855 23.10596,19.76416 
			23.79346,19.32275 23.84619,19.95215 22.57666,20.64648 23.36963,21.96875 24.05713,22.09521 23.42334,23.04053 
			22.89404,22.78955 "/>
		<path fill="#445632" d="M20.19287,18.31445v0.69385l0.05322,0.88135l-0.79346,0.50488c0,0,0.42236,1.26025-0.10645,1.44922
			c-0.52979,0.18848-1.21826-0.18896-1.21826-0.18896s-0.74023,0.25098-1.32324,0.18896
			c-0.58252-0.0625-1.32324-0.25244-1.11182-0.69287c0.21191-0.44189-0.26514-0.88232-0.26514-0.88232
			s-0.15869-1.9541,0.37109-1.9541s0.79346-0.18896,1.27051-0.69238c0.47656-0.50537,1.37695-1.95361,1.58887-1.95361
			s0.31738,0.0625,0.58203-0.44189c0.26465-0.50391,0.31836-1.13379,0.68799-0.75537
			c0.37061,0.37744,1.16504,0.63037,1.16504,0.63037l0.15869,0.63037l-1.16455,0.43994c0,0-0.05322,0.37793,0.21143,0.56738
			c0.26563,0.18896,0.26563,0.94482,0.26563,0.94482l0.58154,0.63037l0,0H20.19287z"/>
		<path fill="#445632" d="M27.02197,16.86523l-0.63379,0.25146c0,0-0.47656,2.77295-0.10645,2.58447
			c0.37109-0.18848,0.31738-1.38672,0.5293-1.38672c0.21094,0,0.26367-1.5752,0.26367-1.5752"/>
		<path fill="#445632" d="M27.97705,18.31445l0.79395,0.44141c0,0-0.31836,0.37793,0.05371,0.37793
			c0.36816,0,1.1123-0.50391,1.42871-0.18896c0.31738,0.31543,0.26367,0.63037,0.42383,1.26025
			c0.1582,0.63037-0.26563,1.32373,0.42285,0.9458c0.68848-0.37891,0.68848-1.44971,1.58984-1.26123
			c0.89844,0.18945,1.58789,0.44189,2.64648,0.9458c1.05957,0.50293,2.01172,0.88281,2.32813,1.51221
			c0.31836,0.63037,0.16016,0.75635,0.63574,0.94385c0.47754,0.18994,0.79492-0.56592,0.74219,0.06396
			c-0.05371,0.62988-1.1123,0.56836-0.53027,1.13477c0.58301,0.56738,2.96484,2.45703,2.11816,2.33008
			c-0.84668-0.125-1.85254-0.56543-2.1709-1.07031c-0.31738-0.50391-1.05859-1.76465-1.5332-1.38574
			c-0.47852,0.37695,0.10547,0.44043-0.63672,0.94531c-0.74121,0.50391-1.58984,0.75488-1.7998,0.0625
			c-0.21191-0.69434-0.37207-0.75684-1.05859-0.63086c-0.68945,0.12695-1.21875-0.00098-0.63672-0.44043
			c0.58301-0.44043,1.16602-0.31641,0.63672-1.32275c-0.53027-1.00928-0.7959-0.81982-1.80078-0.81982
			c-1.00781,0-1.11328-0.18945-1.3252-0.43994c-0.21191-0.25244-0.15723,0.12549-0.63281-0.12695
			c-0.47949-0.25293-0.68945-0.18945-0.68945-1.00684c0-0.82031,0.15918-0.63232-0.53027-0.94678
			C27.76416,19.32275,27.55322,18.81787,27.97705,18.31445z"/>
		<path fill="#445632" d="M26.38818,20.77197c0,0,1.58887-0.25146,1.7998,0.12744c0.21289,0.37646,1.16699,0.75537-0.15723,0.69189
			c-1.32324-0.0625-1.32324,0.25244-1.59082,0.12695C26.17627,21.59131,26.22998,20.83545,26.38818,20.77197z"/>
		<path fill="#445632" d="M24.32373,20.01611c0,0,1.64063-0.44092,1.32422,0c-0.31934,0.44092-0.4248,0.8833-0.90039,0.69287
			C24.26904,20.52051,24.32373,20.01611,24.32373,20.01611z"/>
		<path fill="#445632" d="M25.22314,21.40186l0.58398-0.56641c0,0,0.36914,1.0083,0,1.0083
			C25.43506,21.84375,25.22314,21.40186,25.22314,21.40186z"/>
		<path fill="#445632" d="M30.67725,22.72559c0,0-0.58496,0.12598-0.37207,0.62988c0.21191,0.50488,0.4248,1.25977,0.58301,0.62988
			C31.04834,23.35547,30.67725,22.72559,30.67725,22.72559z"/>
		<path fill="#445632" d="M28.771,23.92383c-0.47656,0.06152-0.79395,0.50293-0.31836,0.62891
			c0.47754,0.125,0.74023-0.37695,0.74023-0.37695L28.771,23.92383z"/>
		<linearGradient id="XMLID_2_" gradientUnits="userSpaceOnUse" x1="15.82861" y1="8.9248" x2="9.94814" y2="22.64622">
			<stop  offset="0" style="stop-color:#83A67F"/>
			<stop  offset="0.5" style="stop-color:#46A046"/>
			<stop  offset="1" style="stop-color:#314E6C"/>
			<a:midPointStop  offset="0" style="stop-color:#83A67F"/>
			<a:midPointStop  offset="0.5" style="stop-color:#83A67F"/>
			<a:midPointStop  offset="0.5" style="stop-color:#46A046"/>
			<a:midPointStop  offset="0.5" style="stop-color:#46A046"/>
			<a:midPointStop  offset="1" style="stop-color:#314E6C"/>
		</linearGradient>
		<path fill="url(#XMLID_2_)" d="M8.15674,17.03223h1.32324c0,0,0.47754,0.88232,0.68848,0.94531
			c0.2124,0.06299,0.84717,0.69336,0.84717,0.69336s0.95361,0.25195,1.05859,0.69385
			c0.10645,0.44043,0.10645,0.88086,0.37109,1.19775c0.26563,0.31396,0.31787,0.56689,0.47705,0.62891
			c0.1582,0.06299,0.68799-0.18945,0.68799-0.18945l0.05225,1.70215c0,0,0.26514,1.38574-0.31738,1.25977
			c-0.58203-0.125-1.58838-0.94482-1.85352-1.32275c-0.26465-0.37891-0.79346-1.00879-1.05859-1.89063
			c-0.26465-0.88232-0.37012-1.38574-0.84668-1.63867c-0.47705-0.25098-1.16504-0.94385-1.32422-1.25928
			C8.104,17.53662,8.15674,17.03223,8.15674,17.03223z"/>
		<linearGradient id="XMLID_3_" gradientUnits="userSpaceOnUse" x1="21.9873" y1="11.61084" x2="16.1226" y2="25.29547">
			<stop  offset="0" style="stop-color:#83A67F"/>
			<stop  offset="0.5" style="stop-color:#46A046"/>
			<stop  offset="1" style="stop-color:#314E6C"/>
			<a:midPointStop  offset="0" style="stop-color:#83A67F"/>
			<a:midPointStop  offset="0.5" style="stop-color:#83A67F"/>
			<a:midPointStop  offset="0.5" style="stop-color:#46A046"/>
			<a:midPointStop  offset="0.5" style="stop-color:#46A046"/>
			<a:midPointStop  offset="1" style="stop-color:#314E6C"/>
		</linearGradient>
		<path fill="url(#XMLID_3_)" d="M13.55615,24.7207c0,0,0.42432-0.63086,0.7417-0.63086c0.31836,0,0.90039,0.18945,0.90039,0.18945
			v0.31445l1.16602-0.18945l0.05273-0.37695l1.90527,0.18848l-0.05273,0.56836l0.74121,0.0625c0,0,0.05273,0.44141-0.15967,0.44141
			c-0.21143,0-2.69922,0.06152-2.69922,0.06152l-2.06543-0.125l-0.53027-0.37793"/>
		<linearGradient id="XMLID_4_" gradientUnits="userSpaceOnUse" x1="25.34717" y1="13.05664" x2="19.48334" y2="26.73923">
			<stop  offset="0" style="stop-color:#83A67F"/>
			<stop  offset="0.5" style="stop-color:#46A046"/>
			<stop  offset="1" style="stop-color:#314E6C"/>
			<a:midPointStop  offset="0" style="stop-color:#83A67F"/>
			<a:midPointStop  offset="0.5" style="stop-color:#83A67F"/>
			<a:midPointStop  offset="0.5" style="stop-color:#46A046"/>
			<a:midPointStop  offset="0.5" style="stop-color:#46A046"/>
			<a:midPointStop  offset="1" style="stop-color:#314E6C"/>
		</linearGradient>
		<polygon fill="url(#XMLID_4_)" points="19.64648,24.7207 19.38135,25.47656 20.229,25.47656 21.02246,24.78418 "/>
		<linearGradient id="XMLID_5_" gradientUnits="userSpaceOnUse" x1="26.81787" y1="13.65625" x2="20.94093" y2="27.36943">
			<stop  offset="0" style="stop-color:#83A67F"/>
			<stop  offset="0.5" style="stop-color:#46A046"/>
			<stop  offset="1" style="stop-color:#314E6C"/>
			<a:midPointStop  offset="0" style="stop-color:#83A67F"/>
			<a:midPointStop  offset="0.5" style="stop-color:#83A67F"/>
			<a:midPointStop  offset="0.5" style="stop-color:#46A046"/>
			<a:midPointStop  offset="0.5" style="stop-color:#46A046"/>
			<a:midPointStop  offset="1" style="stop-color:#314E6C"/>
		</linearGradient>
		<polygon fill="url(#XMLID_5_)" points="21.12842,25.72656 21.60498,25.54004 22.1333,25.79102 21.92236,26.23242 "/>
		<linearGradient id="XMLID_6_" gradientUnits="userSpaceOnUse" x1="27.44189" y1="13.94824" x2="21.57568" y2="27.6364">
			<stop  offset="0" style="stop-color:#83A67F"/>
			<stop  offset="0.5" style="stop-color:#46A046"/>
			<stop  offset="1" style="stop-color:#314E6C"/>
			<a:midPointStop  offset="0" style="stop-color:#83A67F"/>
			<a:midPointStop  offset="0.5" style="stop-color:#83A67F"/>
			<a:midPointStop  offset="0.5" style="stop-color:#46A046"/>
			<a:midPointStop  offset="0.5" style="stop-color:#46A046"/>
			<a:midPointStop  offset="1" style="stop-color:#314E6C"/>
		</linearGradient>
		<polyline fill="url(#XMLID_6_)" points="22.02832,24.65723 22.60986,24.4043 22.82275,24.78418 23.40576,24.59375 
			23.56396,25.28809 21.92236,25.03516 21.86963,24.65723 "/>
		<linearGradient id="XMLID_7_" gradientUnits="userSpaceOnUse" x1="29.56201" y1="14.84814" x2="23.69097" y2="28.54756">
			<stop  offset="0" style="stop-color:#83A67F"/>
			<stop  offset="0.5" style="stop-color:#46A046"/>
			<stop  offset="1" style="stop-color:#314E6C"/>
			<a:midPointStop  offset="0" style="stop-color:#83A67F"/>
			<a:midPointStop  offset="0.5" style="stop-color:#83A67F"/>
			<a:midPointStop  offset="0.5" style="stop-color:#46A046"/>
			<a:midPointStop  offset="0.5" style="stop-color:#46A046"/>
			<a:midPointStop  offset="1" style="stop-color:#314E6C"/>
		</linearGradient>
		<polygon fill="url(#XMLID_7_)" points="25.62744,24.34082 24.51807,25.03516 23.98877,25.91797 23.56396,26.9873 
			24.56982,26.4209 25.4165,25.34961 26.10498,24.84668 "/>
		<linearGradient id="XMLID_8_" gradientUnits="userSpaceOnUse" x1="25.81299" y1="13.23535" x2="19.94105" y2="26.93686">
			<stop  offset="0" style="stop-color:#83A67F"/>
			<stop  offset="0.5" style="stop-color:#46A046"/>
			<stop  offset="1" style="stop-color:#314E6C"/>
			<a:midPointStop  offset="0" style="stop-color:#83A67F"/>
			<a:midPointStop  offset="0.5" style="stop-color:#83A67F"/>
			<a:midPointStop  offset="0.5" style="stop-color:#46A046"/>
			<a:midPointStop  offset="0.5" style="stop-color:#46A046"/>
			<a:midPointStop  offset="1" style="stop-color:#314E6C"/>
		</linearGradient>
		<polygon fill="url(#XMLID_8_)" points="22.02832,20.68652 22.1333,22.83008 21.39258,22.89355 21.39258,21.31787 
			21.18164,21.31787 21.34033,19.67969 21.55176,19.48975 21.55176,18.54492 22.1333,17.97754 24.09229,17.97754 24.72998,16.84326 
			25.2583,17.22217 24.67529,18.41943 22.50439,18.48193 22.02832,19.36475 22.08252,19.93115 23.19385,19.42725 23.88135,18.98584 
			23.93604,19.61523 22.66455,20.31006 23.45752,21.63232 24.14502,21.75879 23.51221,22.7041 22.98096,22.45215 "/>
		<linearGradient id="XMLID_9_" gradientUnits="userSpaceOnUse" x1="21.33936" y1="11.3125" x2="15.46751" y2="25.01381">
			<stop  offset="0" style="stop-color:#83A67F"/>
			<stop  offset="0.5" style="stop-color:#46A046"/>
			<stop  offset="1" style="stop-color:#314E6C"/>
			<a:midPointStop  offset="0" style="stop-color:#83A67F"/>
			<a:midPointStop  offset="0.5" style="stop-color:#83A67F"/>
			<a:midPointStop  offset="0.5" style="stop-color:#46A046"/>
			<a:midPointStop  offset="0.5" style="stop-color:#46A046"/>
			<a:midPointStop  offset="1" style="stop-color:#314E6C"/>
		</linearGradient>
		<path fill="url(#XMLID_9_)" d="M20.28076,17.97754v0.69336l0.05469,0.88232l-0.79492,0.50439c0,0,0.42285,1.26025-0.10596,1.44922
			c-0.53027,0.18896-1.21826-0.18896-1.21826-0.18896s-0.74121,0.25146-1.32324,0.18896
			c-0.58252-0.0625-1.32422-0.25244-1.11182-0.69287c0.21143-0.44092-0.26514-0.88281-0.26514-0.88281
			s-0.15869-1.95361,0.37109-1.95361s0.79443-0.18848,1.27002-0.69189c0.47656-0.50537,1.37646-1.95361,1.58887-1.95361
			c0.21143,0,0.31738,0.0625,0.58203-0.44189c0.26563-0.50439,0.31836-1.13428,0.68848-0.75586
			c0.37061,0.37695,1.16504,0.63086,1.16504,0.63086l0.15869,0.63037l-1.16504,0.43945c0,0-0.05225,0.37793,0.21191,0.56689
			c0.26465,0.19043,0.26465,0.94531,0.26465,0.94531l0.58154,0.63037l0,0H20.28076z"/>
		<linearGradient id="XMLID_10_" gradientUnits="userSpaceOnUse" x1="28.11572" y1="14.22363" x2="22.24148" y2="27.93053">
			<stop  offset="0" style="stop-color:#83A67F"/>
			<stop  offset="0.5" style="stop-color:#46A046"/>
			<stop  offset="1" style="stop-color:#314E6C"/>
			<a:midPointStop  offset="0" style="stop-color:#83A67F"/>
			<a:midPointStop  offset="0.5" style="stop-color:#83A67F"/>
			<a:midPointStop  offset="0.5" style="stop-color:#46A046"/>
			<a:midPointStop  offset="0.5" style="stop-color:#46A046"/>
			<a:midPointStop  offset="1" style="stop-color:#314E6C"/>
		</linearGradient>
		<path fill="url(#XMLID_10_)" d="M27.10986,16.52881l-0.63477,0.25146c0,0-0.47656,2.77295-0.10449,2.58447
			c0.37012-0.18848,0.31738-1.38721,0.5293-1.38721c0.20996,0,0.26465-1.57568,0.26465-1.57568"/>
		<linearGradient id="XMLID_11_" gradientUnits="userSpaceOnUse" x1="36.35889" y1="17.7666" x2="30.48435" y2="31.47418">
			<stop  offset="0" style="stop-color:#83A67F"/>
			<stop  offset="0.5" style="stop-color:#46A046"/>
			<stop  offset="1" style="stop-color:#314E6C"/>
			<a:midPointStop  offset="0" style="stop-color:#83A67F"/>
			<a:midPointStop  offset="0.5" style="stop-color:#83A67F"/>
			<a:midPointStop  offset="0.5" style="stop-color:#46A046"/>
			<a:midPointStop  offset="0.5" style="stop-color:#46A046"/>
			<a:midPointStop  offset="1" style="stop-color:#314E6C"/>
		</linearGradient>
		<path fill="url(#XMLID_11_)" d="M28.06592,17.97754l0.79199,0.44189c0,0-0.31641,0.37744,0.05566,0.37744
			c0.36719,0,1.10938-0.50439,1.42871-0.18896c0.31738,0.31494,0.26172,0.63037,0.42285,1.26025
			c0.1582,0.63086-0.2666,1.32324,0.42285,0.9458c0.68848-0.37842,0.68848-1.44922,1.58984-1.26074
			c0.89941,0.18945,1.58691,0.44141,2.64648,0.9458c1.05957,0.50293,2.0127,0.88232,2.3291,1.51172
			c0.31738,0.63037,0.1582,0.75635,0.63574,0.94482c0.47754,0.18945,0.79395-0.56689,0.74121,0.06348
			c-0.05273,0.62939-1.11133,0.56689-0.5293,1.13428s2.96289,2.45703,2.11816,2.33203
			c-0.84668-0.12598-1.85254-0.56738-2.1709-1.07227c-0.31836-0.50293-1.05859-1.76465-1.53613-1.38574
			c-0.47656,0.37695,0.10645,0.44141-0.63477,0.94629c-0.74023,0.50293-1.58789,0.75488-1.7998,0.06152
			c-0.21289-0.69434-0.37109-0.75586-1.06055-0.63086c-0.6875,0.12598-1.2168,0-0.63379-0.44043
			c0.58105-0.44043,1.16504-0.31641,0.63379-1.32275c-0.52734-1.00879-0.79297-0.82031-1.7998-0.82031
			c-1.00488,0-1.11328-0.18848-1.32324-0.43945c-0.21191-0.25195-0.1582,0.12549-0.63379-0.12695
			c-0.47949-0.25244-0.69043-0.18848-0.69043-1.00732c0-0.81982,0.15918-0.63184-0.52832-0.94629
			C27.85303,18.98584,27.64014,18.48193,28.06592,17.97754z"/>
		<linearGradient id="XMLID_12_" gradientUnits="userSpaceOnUse" x1="30.07764" y1="15.0752" x2="24.21093" y2="28.76451">
			<stop  offset="0" style="stop-color:#83A67F"/>
			<stop  offset="0.5" style="stop-color:#46A046"/>
			<stop  offset="1" style="stop-color:#314E6C"/>
			<a:midPointStop  offset="0" style="stop-color:#83A67F"/>
			<a:midPointStop  offset="0.5" style="stop-color:#83A67F"/>
			<a:midPointStop  offset="0.5" style="stop-color:#46A046"/>
			<a:midPointStop  offset="0.5" style="stop-color:#46A046"/>
			<a:midPointStop  offset="1" style="stop-color:#314E6C"/>
		</linearGradient>
		<path fill="url(#XMLID_12_)" d="M26.4751,20.43555c0,0,1.59082-0.25195,1.80078,0.12695
			c0.21191,0.37695,1.16504,0.75537-0.15723,0.69189c-1.32422-0.06299-1.32422,0.25244-1.59082,0.12695
			C26.26416,21.25439,26.31689,20.49902,26.4751,20.43555z"/>
		<linearGradient id="XMLID_13_" gradientUnits="userSpaceOnUse" x1="27.52197" y1="13.97607" x2="21.65468" y2="27.66675">
			<stop  offset="0" style="stop-color:#83A67F"/>
			<stop  offset="0.5" style="stop-color:#46A046"/>
			<stop  offset="1" style="stop-color:#314E6C"/>
			<a:midPointStop  offset="0" style="stop-color:#83A67F"/>
			<a:midPointStop  offset="0.5" style="stop-color:#83A67F"/>
			<a:midPointStop  offset="0.5" style="stop-color:#46A046"/>
			<a:midPointStop  offset="0.5" style="stop-color:#46A046"/>
			<a:midPointStop  offset="1" style="stop-color:#314E6C"/>
		</linearGradient>
		<path fill="url(#XMLID_13_)" d="M24.41064,19.67969c0,0,1.6416-0.44141,1.32422,0
			c-0.31836,0.44043-0.42383,0.88281-0.89844,0.69336C24.35791,20.18359,24.41064,19.67969,24.41064,19.67969z"/>
		<linearGradient id="XMLID_14_" gradientUnits="userSpaceOnUse" x1="28.59033" y1="14.42871" x2="22.71776" y2="28.1317">
			<stop  offset="0" style="stop-color:#83A67F"/>
			<stop  offset="0.5" style="stop-color:#46A046"/>
			<stop  offset="1" style="stop-color:#314E6C"/>
			<a:midPointStop  offset="0" style="stop-color:#83A67F"/>
			<a:midPointStop  offset="0.5" style="stop-color:#83A67F"/>
			<a:midPointStop  offset="0.5" style="stop-color:#46A046"/>
			<a:midPointStop  offset="0.5" style="stop-color:#46A046"/>
			<a:midPointStop  offset="1" style="stop-color:#314E6C"/>
		</linearGradient>
		<path fill="url(#XMLID_14_)" d="M25.31104,21.06592l0.58203-0.56689c0,0,0.37109,1.00781,0,1.00781
			C25.52295,21.50684,25.31104,21.06592,25.31104,21.06592z"/>
		<linearGradient id="XMLID_15_" gradientUnits="userSpaceOnUse" x1="33.51904" y1="16.54443" x2="27.64366" y2="30.25398">
			<stop  offset="0" style="stop-color:#83A67F"/>
			<stop  offset="0.5" style="stop-color:#46A046"/>
			<stop  offset="1" style="stop-color:#314E6C"/>
			<a:midPointStop  offset="0" style="stop-color:#83A67F"/>
			<a:midPointStop  offset="0.5" style="stop-color:#83A67F"/>
			<a:midPointStop  offset="0.5" style="stop-color:#46A046"/>
			<a:midPointStop  offset="0.5" style="stop-color:#46A046"/>
			<a:midPointStop  offset="1" style="stop-color:#314E6C"/>
		</linearGradient>
		<path fill="url(#XMLID_15_)" d="M30.76514,22.38867c0,0-0.58398,0.12598-0.37109,0.63037
			c0.20996,0.50439,0.4248,1.26025,0.58301,0.62939C31.13525,23.01904,30.76514,22.38867,30.76514,22.38867z"/>
		<linearGradient id="XMLID_16_" gradientUnits="userSpaceOnUse" x1="32.18994" y1="15.97314" x2="26.31572" y2="29.67998">
			<stop  offset="0" style="stop-color:#83A67F"/>
			<stop  offset="0.5" style="stop-color:#46A046"/>
			<stop  offset="1" style="stop-color:#314E6C"/>
			<a:midPointStop  offset="0" style="stop-color:#83A67F"/>
			<a:midPointStop  offset="0.5" style="stop-color:#83A67F"/>
			<a:midPointStop  offset="0.5" style="stop-color:#46A046"/>
			<a:midPointStop  offset="0.5" style="stop-color:#46A046"/>
			<a:midPointStop  offset="1" style="stop-color:#314E6C"/>
		</linearGradient>
		<path fill="url(#XMLID_16_)" d="M28.85791,23.58594c-0.47559,0.0625-0.79199,0.50391-0.31641,0.62988
			c0.47656,0.125,0.73926-0.37695,0.73926-0.37695L28.85791,23.58594z"/>
		<path fill="#D1940C" d="M37.36182,23.63965c0,0-0.75488-1.46484-1.42969-1.37012c-0.6748,0.09375-1.03223,0.28369-1.43066-0.2373
			c-0.39453-0.52051-0.79297-0.9917-1.54785-0.84961c-0.75488,0.14111-0.99316,0.42529-0.75488,0.42529
			c0.23926,0,0.04004-0.89893,1.11133,0.09375c1.07227,0.99219-0.0791,1.65381,1.38965,1.65381
			c1.46973,0,1.58984-0.09473,1.82813,0.18945C36.76611,23.82813,37.59912,24.15918,37.36182,23.63965z"/>
		<path fill="#D1940C" d="M18.93555,16.55029c0,0-0.23779,0.47314-0.71436,0.89844c-0.47656,0.4248-0.27783,0.75635-1.11182,0.89795
			c-0.83398,0.14209-1.9458,0.47217-1.11182,0.99268c0.83398,0.51953,0.63574,0.51953,1.46924,0.04688
			c0.83447-0.47266,0.99219,0.33057,1.19141-0.89746C18.85645,17.25977,18.93555,16.55029,18.93555,16.55029z"/>
		<path fill="#D1940C" d="M9.04834,18.29883c0,0,0.43701,0.52002,0.6748,0.52002s0.35791-0.09424,0.79395,0.56738
			c0.43701,0.66211,0.35742,0.99268,0.51709,1.32275c0.15869,0.33154,0.63477,0.80273,1.07129,0.80273
			c0.4375,0,0.95313,0.33203,0.83496,0.66309c-0.11963,0.33105-0.35791-0.23682-0.79541-0.42529
			c-0.43652-0.18994-1.03223,0-1.15088-0.61475c-0.11963-0.61426-0.27832-1.03955-0.67578-1.46631
			c-0.39648-0.42432-0.55469-0.37695-0.95264-0.75488c-0.39746-0.37793-0.35693-0.75586-0.35693-0.75586"/>
		<linearGradient id="XMLID_17_" gradientUnits="userSpaceOnUse" x1="29.84912" y1="22.06787" x2="27.59053" y2="34.94186">
			<stop  offset="0" style="stop-color:#83A67F"/>
			<stop  offset="0.5" style="stop-color:#46A046"/>
			<stop  offset="1" style="stop-color:#314E6C"/>
			<a:midPointStop  offset="0" style="stop-color:#83A67F"/>
			<a:midPointStop  offset="0.5" style="stop-color:#83A67F"/>
			<a:midPointStop  offset="0.5" style="stop-color:#46A046"/>
			<a:midPointStop  offset="0.5" style="stop-color:#46A046"/>
			<a:midPointStop  offset="1" style="stop-color:#314E6C"/>
		</linearGradient>
		<path fill="url(#XMLID_17_)" d="M31.3208,26.18652c0,0-0.19922,1.46387-0.25098,1.81641
			c-0.0498,0.35254,0.15234,0.60449-0.35254,0.60449c-0.50195,0-1.20508,0-1.50781-0.35254
			c-0.2998-0.35352-0.2998-0.50488-0.2002-0.95801c0.10059-0.4541,0.45313-0.65625,0-0.65625s-1.25781-0.35352-1.65918,0
			c-0.40332,0.35352-0.65527,0.55469-0.75488,0.90723c-0.10059,0.35352-0.60254,0.55566-0.70313,0.30273
			c-0.10156-0.25195,0.04883-0.90625-0.70605-0.45313c-0.75391,0.45313-0.65234,0.75586-0.80371,1.05859
			c-0.14941,0.30273-0.7041,0.35254-0.7041,0.35254l-0.25098,0.85742c0,0-2.66504,0.15234-2.46436,1.51367
			c0.20166,1.36133-0.15039,1.26172,0.50293,2.06738c0.65479,0.80859,1.00537,1.61523,0.85596,1.91797
			c-0.15137,0.30176-0.35352,0.90723,0.40137,0.60449s0.7041-0.50391,1.30859-0.4541
			c0.60254,0.0498,0.35059,0.15137,0.95313-0.30273c0.60352-0.45313,2.1123-1.20996,2.81738-0.60449
			c0.7041,0.60449,0.75391,0.95703,0.75391,0.95703l0.10156,0.30371l0.80469-1.05957l-0.35254,1.16016l0.55273-0.20215
			c0,0,0.05176,0.60547,0.45215,0.90918c0.40234,0.30078,0.75391,0.4541,1.05664,0.4541c0.30078,0,1.15625,0.14941,1.4082,0.0498
			c0.25-0.10059,0.50195-0.15137,0.70508-0.30273c0.19922-0.15137,0.9043-1.46191,1.35742-2.42188
			c0.45117-0.95801,0.85352-0.95801,0.45117-1.86523c-0.40137-0.9082,0.15234-0.55469-0.85547-1.46387
			c-1.00488-0.90723-1.4082-0.70508-1.6582-1.41113c-0.25195-0.70703-0.10059-1.21094-0.30176-1.66504
			c-0.20117-0.45313-0.25195-0.25195-0.40332-0.80664c-0.15039-0.55469,0.05078-1.51172-0.30176-1.15918
			C31.22217,26.2373,31.3208,26.18652,31.3208,26.18652z"/>
		<linearGradient id="XMLID_18_" gradientUnits="userSpaceOnUse" x1="24.60596" y1="10.25342" x2="3.43008" y2="10.25342">
			<stop  offset="0" style="stop-color:#83A67F"/>
			<stop  offset="0.5" style="stop-color:#46A046"/>
			<stop  offset="1" style="stop-color:#314E6C"/>
			<a:midPointStop  offset="0" style="stop-color:#83A67F"/>
			<a:midPointStop  offset="0.5" style="stop-color:#83A67F"/>
			<a:midPointStop  offset="0.5" style="stop-color:#46A046"/>
			<a:midPointStop  offset="0.5" style="stop-color:#46A046"/>
			<a:midPointStop  offset="1" style="stop-color:#314E6C"/>
		</linearGradient>
		<path fill="url(#XMLID_18_)" d="M30.57764,2.87646c-0.18164-0.07715-0.36719-0.14648-0.54785-0.21777
			c-0.00293,0.01953,0,0.03076-0.00684,0.05615c-0.10059,0.51367-0.25195,0.61572-0.2002,0.97559
			c0.04785,0.35938,0.50488,1.43652,0.60352,0.8208c0.10156-0.61572,0.05273-0.56494,0.25391-0.92383
			C30.82959,3.32422,30.46533,3.0083,30.57764,2.87646z M20.63037,6.87305c-0.00146,0-0.00342,0.00146-0.00537,0.00146
			C20.66504,6.87402,20.68115,6.87305,20.63037,6.87305z M28.32373,2.06592c-2.16406-0.354-4.91406-0.71973-7.65234-0.854
			C13.79004,1.67139,7.78857,5.354,4.16064,10.77344c0.21924,1.29492,1.01758,3.49121,1.01758,3.49121l0.95898-0.25586
			c0,0-0.25293,0.56348-0.30273,0.97412c-0.0498,0.41113-0.0498,1.95068-0.0498,2.10449c0,0.1543-0.15186,1.48926,0.09961,1.38623
			c0.25293-0.10205,0.35449-0.15332,0.55615-0.51318c0.20264-0.35938,0.45508-1.18066,0.60693-1.74561
			c0.15137-0.56445,0.35303-1.33447,0.90869-1.9502c0.55566-0.6167,0.85791-0.20557,1.00977-0.10254
			c0.15137,0.10254,0.55566-1.64258,0.75732-0.77002c0.20264,0.87256,0.95996,0.66699,0.80762-0.35938
			c-0.15088-1.02637,0.25244-1.54004,0.25244-1.54004s0.25293,1.89941,0.25293,2.20752c0,0.30859-0.35303,0.66699-0.20215,0.71875
			c0.15186,0.05078,0.80811-0.66797,0.80811-0.66797s-0.10059,0.30811-0.05029,0.71875s0.20117,1.64307,0.15186,2.05273
			c-0.05029,0.41113-0.40479,0.41113-0.20215,0.56494c0.20215,0.1543,0.55566,0.61719,0.55566,0.61719
			s0.05029,0.61572,0.15137,0.8208c0.10059,0.20508,0.65625,0.61523,0.65625,0.61523l0.70703,0.1543
			c0,0-0.4043-0.35986-0.4043-0.51367s0-0.92285,0-0.92285l-0.60547-0.6167l-0.50488-0.41064l0.20166-1.59131l0.35303-0.20605
			l0.65723,0.71924l0.55566,0.1543l-0.10205,0.56445c0,0,1.66748-1.33398,1.66748-1.84814
			c0-0.51318-0.10156-0.92334-0.25293-1.12891S14.521,12.82715,14.521,12.82715l0.80762-1.18066h0.70752l-0.10156,0.35986
			l-0.35303,0.66699c0,0,0.40381,0.30859,0.40381,0.15381c0-0.15381,0.30225-0.56445,0.30225-0.56445v-0.51367
			c0,0,1.56543-0.20508,2.37402-0.82129c0.80762-0.61572,0.60645-0.56445,1.31348-1.48877
			c0.70654-0.92383,1.36328-0.87207,0.70654-1.38574S19.9751,7.33545,19.9751,7.33545s0.34863-0.45557,0.6499-0.46094
			c-0.19727,0.00391-1.27344-0.01025-0.85303-0.31055c0.50537-0.3584,1.46533-0.6665,1.46533-0.6665
			s-0.30371,0.56445,0.15137,0.46191c0.45508-0.10303,0.50488-0.25635,0.65674,0c0.1499,0.25732,0.1499,0.61621,0.0498,0.97607
			c-0.10059,0.3584,0.35449,0.30762,0.35449,0.30762s0.35254-0.1543,0.65527-0.4624c0.30371-0.30762,0.80957-0.1543,0.30371-0.6167
			c-0.50586-0.46094-1.1123-0.76953-0.4043-0.87207c0.70703-0.10205,0.50391-0.25684,1.26172-0.25684
			c0.75879,0,0.95996,0.05176,1.46484-0.56445c0.50586-0.61572,0.95898-0.51367,0.75879-1.02686
			c-0.2041-0.51318-1.36426-0.10205-0.95996-0.61523c0.4043-0.51367,0.25391-0.51367,1.51563-0.41113
			c1.26074,0.10303,1.71484,0.61572,2.17188,0.30713c0.24414-0.16455,0.48242-0.41309,0.6416-0.53418
			C29.35693,2.39746,28.84521,2.22217,28.32373,2.06592z"/>
	</g>
</svg>
