<?xml version="1.0" encoding="utf-8"?>
<!-- Generator: Adobe Illustrator 11.0, SVG Export Plug-In  -->
<!DOCTYPE svg PUBLIC "-//W3C//DTD SVG 1.0//EN"    "http://www.w3.org/TR/2001/REC-SVG-20010904/DTD/svg10.dtd" [
	<!ENTITY ns_flows "http://ns.adobe.com/Flows/1.0/">
	<!ENTITY ns_svg "http://www.w3.org/2000/svg">
	<!ENTITY ns_xlink "http://www.w3.org/1999/xlink">
]>
<svg  xmlns="&ns_svg;" xmlns:xlink="&ns_xlink;" xmlns:a="http://ns.adobe.com/AdobeSVGViewerExtensions/3.0/"
	 width="48" height="48" viewBox="0 -3.4585 48 48" xml:space="preserve">
	<defs>
	</defs>
	<g>
		<path fill="none" stroke="#565248" stroke-width="3" stroke-linecap="round" stroke-linejoin="round" d="M42.5625,7.3125
			c0,0-0.8125,4.5-1.4375,5.375S39,14.75,39,14.75l0.2002,1.25684c-0.74121-3.23926-1.41602-6.37402-1.3877-6.94434
			c0,0-0.75,3.5625-1.6875,4.6875c-0.57813,0.69434-1.3457,1.29199-1.84961,1.64844
			c-1.55078-3.62109-3.5332-8.55566-4.25195-11.65527c0.44238,2.7041,1.55469,7.83691,4.19922,13.89941l0.78906,3.15137
			c-1.32617-2.70117-4.41895-9.61133-5.19922-16.73145C28.75,13.5625,23.5,21.5,23.5,21.5l-0.60938,0.67822H22.8584
			c0.36523-0.57617,2.9834-4.75732,4.4541-8.67822c1.69336-4.5166,2.28906-9.03125,2.48047-10.98828
			c0.04492,0.36328,0.12695,0.78027,0.23047,1.23145c-0.10254-0.62842-0.16797-1.11377-0.20898-1.46094
			C29.85938,1.78955,29.875,1.5,29.875,1.5c-0.02344,0.18945-0.06152,0.37207-0.08789,0.56055
			C29.75977,1.81738,29.75,1.6875,29.75,1.6875c-0.00781,0.15283,0,0.33008,0.01465,0.51758
			c-0.86426,6.05859-3.29199,11.46484-5.32422,15.1084c-1.51953,0.02246-9.4707,0.35059-12.50293-10.62598
			c0,0-0.33691,3.17871-0.31152,7.00781L11.625,13.6875c0,0-0.8125-0.3125-2.6875-2.25S5.875,4.8125,5.875,4.8125
			C5.75,6.4375,5.25,21.87549,5.25,21.87549l1.58008,0.02734L7.375,32.31299l6.53955-0.02344l0.02295,0.89844h7.47949v0.01953l2,0.5
			l0.00342-0.51953h0.00098l-0.00439,0.6875l12.16699-0.08398l0.00195-0.60352h3.97656l0.05859-0.98438l4.44141-0.01563
			l0.25-9.17578l1.9375-0.05469C46.25,22.95752,42.25,11.8125,42.5625,7.3125z M23.66504,18.65918
			c-1.29443,2.16602-2.27002,3.43896-2.28711,3.4624l-0.02051-0.00195L23.66504,18.65918z"/>
		<radialGradient id="XMLID_1_" cx="5" cy="39.1665" r="40.95825" fx="5" fy="39.1665" gradientUnits="userSpaceOnUse">
			<stop  offset="0" style="stop-color:#C5D2C8"/>
			<stop  offset="1" style="stop-color:#267726"/>
			<a:midPointStop  offset="0" style="stop-color:#C5D2C8"/>
			<a:midPointStop  offset="0.5" style="stop-color:#C5D2C8"/>
			<a:midPointStop  offset="1" style="stop-color:#267726"/>
		</radialGradient>
		<path fill="url(#XMLID_1_)" d="M48,39.65869c-5.3916-1.30371-12.97168-2.11719-21.375-2.11719
			c-11.69824,0-21.80957,1.57422-26.625,3.8584v3.1416h48V39.65869z"/>
		<path fill="#565248" d="M34.53613,39.68311c-0.0166,0.58691-0.32422,1.05469-0.68652,1.04492l0,0
			c-0.3623-0.01172-0.64258-0.49414-0.62695-1.08008l0.17871-6.37305c0.0166-0.58691,0.32422-1.05469,0.68652-1.04492l0,0
			c0.3623,0.01172,0.64258,0.49414,0.62695,1.08008L34.53613,39.68311z"/>
		<path fill="#565248" d="M9.28955,39.23584c0.04199,0.58594-0.21729,1.08105-0.57861,1.10742l0,0
			c-0.36133,0.02539-0.68848-0.42773-0.73096-1.0127l-0.45703-6.3584c-0.04199-0.58594,0.21729-1.08105,0.57861-1.10742l0,0
			c0.36133-0.02539,0.68848,0.42773,0.73096,1.0127L9.28955,39.23584z"/>
		<path fill="#565248" d="M15.63818,39.1499c0.01367,0.58691-0.26904,1.06934-0.63135,1.07813l0,0
			c-0.36182,0.00781-0.66748-0.45996-0.68164-1.0459l-0.15088-6.37402c-0.01367-0.58691,0.26904-1.06934,0.63135-1.07813l0,0
			c0.36182-0.00781,0.66748,0.45996,0.68164,1.0459L15.63818,39.1499z"/>
		<path fill="#565248" d="M22.01318,39.7124c0.01367,0.58691-0.26904,1.06934-0.63135,1.07813l0,0
			c-0.36182,0.00781-0.66748-0.45996-0.68164-1.0459l-0.15088-6.37402c-0.01367-0.58691,0.26904-1.06934,0.63135-1.07813l0,0
			c0.36182-0.00781,0.66748,0.45996,0.68164,1.0459L22.01318,39.7124z"/>
		<path fill="#565248" d="M24.57568,40.4624c0.01367,0.58691-0.26904,1.06934-0.63135,1.07813l0,0
			c-0.36182,0.00781-0.66748-0.45996-0.68164-1.0459l-0.15088-6.37402c-0.01367-0.58691,0.26904-1.06934,0.63135-1.07813l0,0
			c0.36182-0.00781,0.66748,0.45996,0.68164,1.0459L24.57568,40.4624z"/>
		<path fill="#565248" d="M35.43359,40.68018c-0.01172,0.58691-0.31641,1.05566-0.67871,1.04785l0,0
			c-0.3623-0.00781-0.64648-0.48926-0.63379-1.0752l0.13281-6.375c0.01172-0.58594,0.31641-1.05566,0.67871-1.04785l0,0
			c0.3623,0.00781,0.64648,0.48926,0.63379,1.0752L35.43359,40.68018z"/>
		<path fill="#565248" d="M39.0166,39.32178c-0.03223,0.58594-0.35254,1.04492-0.71387,1.02637l0,0
			c-0.36133-0.02051-0.62988-0.51074-0.59863-1.09473l0.3418-6.36719c0.03223-0.58594,0.35254-1.04492,0.71387-1.02637l0,0
			c0.36133,0.02051,0.62988,0.51074,0.59863,1.09473L39.0166,39.32178z"/>
		<path fill="#565248" d="M43.58789,38.5708c-0.03027,0.58594-0.34863,1.0459-0.71094,1.02832l0,0
			c-0.36133-0.01953-0.63086-0.50879-0.60156-1.09375l0.32422-6.36816c0.03027-0.58594,0.34863-1.0459,0.71094-1.02832l0,0
			c0.36133,0.01953,0.63086,0.50879,0.60156,1.09375L43.58789,38.5708z"/>
		<linearGradient id="XMLID_2_" gradientUnits="userSpaceOnUse" x1="22.771" y1="14.60059" x2="22.521" y2="17.22559">
			<stop  offset="0" style="stop-color:#9DB8D2"/>
			<stop  offset="1" style="stop-color:#314E6C"/>
			<a:midPointStop  offset="0" style="stop-color:#9DB8D2"/>
			<a:midPointStop  offset="0.5" style="stop-color:#9DB8D2"/>
			<a:midPointStop  offset="1" style="stop-color:#314E6C"/>
		</linearGradient>
		<path fill="url(#XMLID_2_)" d="M22.4165,12.64551c0,0,0.5,4.9375,0.9375,5.25s0.4375,0.3125,0.4375,0.3125l-2.6875-0.4375
			L22.4165,12.64551z"/>
		<polygon fill="#635E53" points="6.8125,21.979 44.3125,23.4165 44.0625,32.604 7.375,32.729 "/>
		<linearGradient id="XMLID_3_" gradientUnits="userSpaceOnUse" x1="38.55469" y1="13.21582" x2="43.1377" y2="17.04883">
			<stop  offset="0" style="stop-color:#7590AE"/>
			<stop  offset="1" style="stop-color:#314E6C"/>
			<a:midPointStop  offset="0" style="stop-color:#7590AE"/>
			<a:midPointStop  offset="0.5" style="stop-color:#7590AE"/>
			<a:midPointStop  offset="1" style="stop-color:#314E6C"/>
		</linearGradient>
		<path fill="url(#XMLID_3_)" d="M42.5625,7.729c0,0-0.8125,4.5-1.4375,5.375S39,15.1665,39,15.1665l1.33301,8.375L46.25,23.37451
			C46.25,23.37451,42.25,12.229,42.5625,7.729z"/>
		<path fill="#EAE8E3" stroke="#565248" stroke-width="0.5" d="M42.29102,26.5249c0-1.02148-0.68945-1.85156-1.54004-1.85156
			c-0.7832,0-1.42285,0.70703-1.51953,1.61914l0.05762,4.00098h2.98438C42.27344,30.29346,42.29102,26.6001,42.29102,26.5249z"/>
		<line fill="none" stroke="#565248" stroke-width="0.25" x1="39.3125" y1="26.354" x2="42.3125" y2="26.354"/>
		<line fill="none" stroke="#565248" stroke-width="0.25" x1="40.8125" y1="24.854" x2="40.875" y2="26.2915"/>
		<polygon fill="#666155" points="40.125,24.0415 13.6875,23.7915 13.9375,33.604 39.5625,33.604 "/>
		<linearGradient id="XMLID_4_" gradientUnits="userSpaceOnUse" x1="35.04492" y1="15.23975" x2="43.87793" y2="24.23926">
			<stop  offset="0" style="stop-color:#7590AE"/>
			<stop  offset="1" style="stop-color:#314E6C"/>
			<a:midPointStop  offset="0" style="stop-color:#7590AE"/>
			<a:midPointStop  offset="0.5" style="stop-color:#7590AE"/>
			<a:midPointStop  offset="1" style="stop-color:#314E6C"/>
		</linearGradient>
		<path fill="url(#XMLID_4_)" d="M37.8125,9.479c0,0-0.75,3.5625-1.6875,4.6875s-2.375,2-2.375,2l2.125,8.5l5.1875-0.375
			C41.0625,24.2915,37.75,10.729,37.8125,9.479z"/>
		<path fill="#EAE8E3" stroke="#565248" stroke-width="0.5" d="M38.04102,27.33936c0-1.12598-0.75977-2.04102-1.69727-2.04102
			c-0.86328,0-1.56836,0.7793-1.6748,1.78418l0.06348,4.41016h3.28906C38.02148,31.49268,38.04102,27.42236,38.04102,27.33936z"/>
		<path fill="#565248" d="M22.5625,22.479L35.5,23.104l1.25-0.125L31.125,8.7915l-1.3125-6.125
			C29.8125,2.6665,28.0625,15.479,22.5625,22.479z"/>
		<line fill="none" stroke="#565248" stroke-width="0.25" x1="35.0625" y1="26.854" x2="38.0625" y2="26.854"/>
		<line fill="none" stroke="#565248" stroke-width="0.25" x1="36.5625" y1="25.354" x2="36.625" y2="26.7915"/>
		<linearGradient id="XMLID_5_" gradientUnits="userSpaceOnUse" x1="29.47266" y1="9.98096" x2="29.53515" y2="33.48096">
			<stop  offset="0" style="stop-color:#BAB5AB"/>
			<stop  offset="1" style="stop-color:#565248"/>
			<a:midPointStop  offset="0" style="stop-color:#BAB5AB"/>
			<a:midPointStop  offset="0.5" style="stop-color:#BAB5AB"/>
			<a:midPointStop  offset="1" style="stop-color:#565248"/>
		</linearGradient>
		<path fill="url(#XMLID_5_)" d="M29.8125,4.479C28.75,13.979,23.5,21.9165,23.5,21.9165l-0.08301,12.375l12.16699-0.08301
			L35.625,22.4165C35.625,22.4165,30.8125,13.604,29.8125,4.479z"/>
		<path fill="#EAE8E3" stroke="#565248" stroke-width="0.5" d="M33.16602,25.86865c0-2.29688-1.54785-4.16113-3.45801-4.16113
			c-1.76074,0-3.19727,1.58887-3.41406,3.63574l0.13086,8.99023h6.7002C33.125,34.3335,33.16602,26.0376,33.16602,25.86865z"/>
		<path fill="#EAE8E3" stroke="#565248" stroke-width="0.5" d="M19.54102,26.96436c0-1.12598-0.75928-2.04102-1.69678-2.04102
			c-0.86426,0-1.56885,0.7793-1.67529,1.78418l0.06396,4.41016H19.521C19.521,31.11768,19.54102,27.04736,19.54102,26.96436z"/>
		<path fill="#EAE8E3" stroke="#565248" stroke-width="0.5" d="M12.02979,26.06982c0-1.08105-0.72852-1.95898-1.62793-1.95898
			c-0.82959,0-1.50586,0.74805-1.60791,1.71191l0.06152,4.23242h3.15527C12.01074,30.05518,12.02979,26.14893,12.02979,26.06982z"/>
		<polygon fill="#787264" points="23.5,21.9165 21.3125,24.354 21.41699,33.62451 23.41699,34.12451 "/>
		<linearGradient id="XMLID_6_" gradientUnits="userSpaceOnUse" x1="8.82227" y1="11.29639" x2="8.90576" y2="22.29639">
			<stop  offset="0" style="stop-color:#7590AE"/>
			<stop  offset="1" style="stop-color:#314E6C"/>
			<a:midPointStop  offset="0" style="stop-color:#7590AE"/>
			<a:midPointStop  offset="0.5" style="stop-color:#7590AE"/>
			<a:midPointStop  offset="1" style="stop-color:#314E6C"/>
		</linearGradient>
		<path fill="url(#XMLID_6_)" d="M5.875,5.229c0,0,1.1875,4.6875,3.0625,6.625s2.6875,2.25,2.6875,2.25l0.9375,8.3125L5.25,22.2915
			C5.25,22.2915,5.75,6.854,5.875,5.229z"/>
		<linearGradient id="XMLID_7_" gradientUnits="userSpaceOnUse" x1="16.3916" y1="17.68457" x2="14.3916" y2="23.35107">
			<stop  offset="0" style="stop-color:#7590AE"/>
			<stop  offset="1" style="stop-color:#314E6C"/>
			<a:midPointStop  offset="0" style="stop-color:#7590AE"/>
			<a:midPointStop  offset="0.5" style="stop-color:#7590AE"/>
			<a:midPointStop  offset="1" style="stop-color:#314E6C"/>
		</linearGradient>
		<path fill="url(#XMLID_7_)" d="M11.9375,7.104c0,0-1.1875,11.1875,1.0625,16.875c1.8125,0.1875,7.3125,0.125,7.3125,0.125
			l4.25-6.375C23.41309,17.72217,15.0625,18.4165,11.9375,7.104z"/>
		<path fill="#9DB8D2" d="M29.875,1.9165c0,0-0.3125,6-2.5625,12c-1.58301,4.22021-4.5,8.75-4.5,8.75l-1.4375-0.125
			C21.375,22.5415,28.5,13.2915,29.875,1.9165z"/>
		<path fill="#9DB8D2" d="M29.75,2.104c0,0,0.625,8,5.375,17.9375c0.64258,1.34375,0.97852,2.30273,1.375,2.8125
			c0.4375,0.5625,0.84961,0.21973,0.9375,0l-1.125-2.4375C36.3125,20.4165,29.5625,5.854,29.75,2.104z"/>
		<line fill="none" stroke="#565248" stroke-width="0.5" x1="26.0625" y1="25.2915" x2="33.0625" y2="25.229"/>
		<line fill="none" stroke="#565248" stroke-width="0.5" x1="29.625" y1="21.854" x2="29.625" y2="25.104"/>
		<line fill="none" stroke="#565248" stroke-width="0.25" x1="8.875" y1="25.7915" x2="11.875" y2="25.7915"/>
		<line fill="none" stroke="#565248" stroke-width="0.25" x1="10.375" y1="24.2915" x2="10.4375" y2="25.729"/>
		<line fill="none" stroke="#565248" stroke-width="0.25" x1="16.375" y1="26.5415" x2="19.375" y2="26.5415"/>
		<line fill="none" stroke="#565248" stroke-width="0.25" x1="17.875" y1="25.0415" x2="17.9375" y2="26.479"/>
		<line fill="none" stroke="#565248" stroke-width="0.5" x1="26.66699" y1="34.2085" x2="27.66699" y2="42.7915"/>
		<line fill="none" stroke="#565248" stroke-width="0.5" x1="32.91699" y1="34.12549" x2="34.08398" y2="42.4585"/>
		<line fill="none" stroke="#565248" stroke-width="0.5" x1="27" y1="36.7085" x2="33.25" y2="36.62549"/>
		<line fill="none" stroke="#565248" stroke-width="0.5" x1="27.41699" y1="39.4585" x2="33.41699" y2="39.37549"/>
		<line fill="none" stroke="#565248" stroke-width="0.5" x1="27.5" y1="41.7915" x2="34" y2="41.5415"/>
	</g>
</svg>
